<svg id="Réteg_1" data-name="Réteg 1" xmlns="http://www.w3.org/2000/svg" width="11.01" height="20" viewBox="0 0 11.01 20">
  <defs>
    <style>
      .cls-1 {
        fill: #fff;
      }
    </style>
  </defs>
  <title>phone</title>
  <path class="cls-1" d="M3.23.95a1.74,1.74,0,0,0-1.06.84C2,2.19,2,1.41,2,10.89,2,17,2,19.51,2,19.62a1.69,1.69,0,0,0,1.11,1.22l.21.07h8.3l.2-.07a2,2,0,0,0,.75-.48,2,2,0,0,0,.36-.69c0-.17.05-.66.05-8.78V2.28L12.93,2A1.68,1.68,0,0,0,11.74.94C11.48.88,3.48.88,3.23.95Zm5.42.64s0,.07,0,.12-.18,0-1.13,0l-1.13,0a.12.12,0,0,1,0-.16s.52,0,1.14,0A6.57,6.57,0,0,1,8.65,1.59Zm3,.86.07.07v7.85c0,6.12,0,7.85,0,7.89a.33.33,0,0,1-.1.08s-1.09,0-4.13,0H3.4l-.08-.08-.08-.08V10.38c0-5.88,0-7.83,0-7.87a.33.33,0,0,1,.08-.1s1,0,4.15,0h4.1ZM7.75,19.1a.59.59,0,0,1,.19.18.55.55,0,0,1,0,.58.54.54,0,0,1-.91,0,.59.59,0,0,1,0-.51A.55.55,0,0,1,7.75,19.1Z" transform="translate(-1.99 -0.9)"/>
</svg>
